<svg width="700" height="400" viewBox="0 0 700 400" xmlns="http://www.w3.org/2000/svg" font-family="ui-monospace, SFMono-Regular, Menlo, monospace" font-size="13" fill="#8b98a9">
  <defs>
    <marker id="arrP" viewBox="0 0 10 10" refX="9" refY="5" markerWidth="7" markerHeight="7" orient="auto-start-reverse">
      <path d="M 0 0 L 10 5 L 0 10 z" fill="#8b98a9" opacity="0.8"/>
    </marker>
  </defs>

  <!-- the package folder -->
  <rect x="20" y="30" width="280" height="340" rx="12" fill="rgba(139,152,169,0.05)" stroke="#8b98a9" stroke-opacity="0.5" stroke-dasharray="6 4"/>
  <text x="160" y="60" text-anchor="middle" fill="#c0cadb" font-size="14">Qwen/Qwen3-0.6B/</text>

  <rect x="45" y="80" width="230" height="36" rx="8" fill="rgba(70,130,180,0.10)" stroke="#4682b4" stroke-opacity="0.6"/>
  <text x="160" y="103" text-anchor="middle" fill="#c0cadb">config.json</text>

  <rect x="45" y="132" width="230" height="36" rx="8" fill="rgba(70,130,180,0.10)" stroke="#4682b4" stroke-opacity="0.6"/>
  <text x="160" y="155" text-anchor="middle" fill="#c0cadb">model.safetensors</text>

  <rect x="45" y="184" width="230" height="36" rx="8" fill="rgba(70,130,180,0.10)" stroke="#4682b4" stroke-opacity="0.6"/>
  <text x="160" y="207" text-anchor="middle" fill="#c0cadb">tokenizer.json</text>

  <rect x="45" y="236" width="230" height="36" rx="8" fill="rgba(70,130,180,0.10)" stroke="#4682b4" stroke-opacity="0.6"/>
  <text x="160" y="259" text-anchor="middle" fill="#c0cadb">tokenizer_config.json</text>

  <rect x="45" y="288" width="230" height="36" rx="8" fill="rgba(70,130,180,0.10)" stroke="#4682b4" stroke-opacity="0.6"/>
  <text x="160" y="311" text-anchor="middle" fill="#c0cadb">generation_config.json</text>

  <!-- consuming blocks -->
  <rect x="470" y="70" width="210" height="52" rx="10" fill="rgba(224,164,88,0.10)" stroke="#e0a458" stroke-opacity="0.8"/>
  <text x="575" y="92" text-anchor="middle" fill="#f0c893">loader</text>
  <text x="575" y="110" text-anchor="middle" font-size="12" opacity="0.7">files to Tensors</text>

  <rect x="470" y="154" width="210" height="52" rx="10" fill="rgba(224,164,88,0.10)" stroke="#e0a458" stroke-opacity="0.8"/>
  <text x="575" y="176" text-anchor="middle" fill="#f0c893">tokenizer</text>
  <text x="575" y="194" text-anchor="middle" font-size="12" opacity="0.7">text to ids and back</text>

  <rect x="470" y="238" width="210" height="52" rx="10" fill="rgba(224,164,88,0.10)" stroke="#e0a458" stroke-opacity="0.8"/>
  <text x="575" y="260" text-anchor="middle" fill="#f0c893">chat template</text>
  <text x="575" y="278" text-anchor="middle" font-size="12" opacity="0.7">prompt to ChatML</text>

  <rect x="470" y="322" width="210" height="52" rx="10" fill="rgba(224,164,88,0.10)" stroke="#e0a458" stroke-opacity="0.8"/>
  <text x="575" y="344" text-anchor="middle" fill="#f0c893">the loop</text>
  <text x="575" y="362" text-anchor="middle" font-size="12" opacity="0.7">stop ids, defaults</text>

  <!-- file to block -->
  <path d="M 302 98 C 370 98, 400 92, 466 92" stroke="#8b98a9" stroke-opacity="0.7" fill="none" marker-end="url(#arrP)"/>
  <path d="M 302 150 C 370 150, 400 112, 466 102" stroke="#8b98a9" stroke-opacity="0.7" fill="none" marker-end="url(#arrP)"/>
  <path d="M 302 202 C 370 202, 400 184, 466 180" stroke="#8b98a9" stroke-opacity="0.7" fill="none" marker-end="url(#arrP)"/>
  <path d="M 302 254 C 370 254, 400 262, 466 264" stroke="#8b98a9" stroke-opacity="0.7" fill="none" marker-end="url(#arrP)"/>
  <path d="M 302 306 C 370 306, 400 340, 466 348" stroke="#8b98a9" stroke-opacity="0.7" fill="none" marker-end="url(#arrP)"/>
</svg>
